<svg width="28" height="28" viewBox="0 0 28 28" fill="none" xmlns="http://www.w3.org/2000/svg">
<path d="M0.999994 14C0.999994 11.4288 1.76243 8.91543 3.19089 6.77759C4.61935 4.63975 6.64967 2.97351 9.02511 1.98957C11.4005 1.00563 14.0144 0.748184 16.5362 1.24979C19.0579 1.7514 21.3743 2.98953 23.1924 4.80761C25.0105 6.62569 26.2486 8.94207 26.7502 11.4638C27.2518 13.9856 26.9944 16.5994 26.0104 18.9749C25.0265 21.3503 23.3602 23.3806 21.2224 24.8091C19.0846 26.2376 16.5712 27 14 27C10.5522 27 7.24558 25.6304 4.80761 23.1924C2.36963 20.7544 0.999994 17.4478 0.999994 14V14Z" stroke="#817554" stroke-linecap="round" stroke-linejoin="round"/>
<path d="M13.5 20L19.5 14L13.5 8" stroke="#817554" stroke-linecap="round" stroke-linejoin="round"/>
<path d="M8 14L20 14" stroke="#817554" stroke-linecap="round" stroke-linejoin="round"/>
</svg>
