<svg width="63" height="35" viewBox="0 0 63 35" fill="none" xmlns="http://www.w3.org/2000/svg">
<path d="M4.878 13.216C4.338 13.216 3.822 13.114 3.33 12.91C2.85 12.706 2.424 12.412 2.052 12.028C1.68 11.632 1.38 11.152 1.152 10.588C0.936 10.012 0.828 9.364 0.828 8.644C0.828 7.912 0.936 7.264 1.152 6.7C1.38 6.124 1.68 5.638 2.052 5.242C2.424 4.846 2.85 4.546 3.33 4.342C3.822 4.138 4.338 4.036 4.878 4.036C5.418 4.036 5.928 4.138 6.408 4.342C6.9 4.546 7.332 4.846 7.704 5.242C8.076 5.638 8.37 6.124 8.586 6.7C8.814 7.264 8.928 7.912 8.928 8.644C8.928 9.364 8.814 10.012 8.586 10.588C8.37 11.152 8.076 11.632 7.704 12.028C7.332 12.412 6.9 12.706 6.408 12.91C5.928 13.114 5.418 13.216 4.878 13.216ZM4.878 11.992C5.25 11.992 5.592 11.914 5.904 11.758C6.216 11.59 6.48 11.362 6.696 11.074C6.924 10.774 7.098 10.42 7.218 10.012C7.338 9.604 7.398 9.148 7.398 8.644C7.398 8.14 7.338 7.684 7.218 7.276C7.098 6.856 6.924 6.496 6.696 6.196C6.48 5.896 6.216 5.668 5.904 5.512C5.592 5.344 5.25 5.26 4.878 5.26C4.506 5.26 4.164 5.344 3.852 5.512C3.54 5.668 3.27 5.896 3.042 6.196C2.826 6.496 2.658 6.856 2.538 7.276C2.418 7.684 2.358 8.14 2.358 8.644C2.358 9.148 2.418 9.604 2.538 10.012C2.658 10.42 2.826 10.774 3.042 11.074C3.27 11.362 3.54 11.59 3.852 11.758C4.164 11.914 4.506 11.992 4.878 11.992ZM13.687 13.216C13.219 13.216 12.823 13.144 12.499 13C12.187 12.856 11.929 12.658 11.725 12.406C11.533 12.154 11.395 11.848 11.311 11.488C11.227 11.128 11.185 10.732 11.185 10.3V5.458H9.88903V4.342L11.257 4.252L11.437 1.804H12.679V4.252H15.037V5.458H12.679V10.318C12.679 10.858 12.775 11.278 12.967 11.578C13.171 11.866 13.525 12.01 14.029 12.01C14.185 12.01 14.353 11.986 14.533 11.938C14.713 11.89 14.875 11.836 15.019 11.776L15.307 12.892C15.067 12.976 14.803 13.048 14.515 13.108C14.239 13.18 13.963 13.216 13.687 13.216ZM20.315 13.216C19.727 13.216 19.175 13.114 18.659 12.91C18.155 12.694 17.711 12.394 17.327 12.01C16.955 11.614 16.661 11.134 16.445 10.57C16.229 10.006 16.121 9.364 16.121 8.644C16.121 7.924 16.229 7.282 16.445 6.718C16.673 6.142 16.967 5.656 17.327 5.26C17.699 4.864 18.119 4.564 18.587 4.36C19.055 4.144 19.541 4.036 20.045 4.036C20.597 4.036 21.089 4.132 21.521 4.324C21.965 4.516 22.331 4.792 22.619 5.152C22.919 5.512 23.147 5.944 23.303 6.448C23.459 6.952 23.537 7.516 23.537 8.14C23.537 8.296 23.531 8.452 23.519 8.608C23.519 8.752 23.507 8.878 23.483 8.986H17.579C17.639 9.922 17.927 10.666 18.443 11.218C18.971 11.758 19.655 12.028 20.495 12.028C20.915 12.028 21.299 11.968 21.647 11.848C22.007 11.716 22.349 11.548 22.673 11.344L23.195 12.316C22.811 12.556 22.385 12.766 21.917 12.946C21.449 13.126 20.915 13.216 20.315 13.216ZM17.561 7.924H22.241C22.241 7.036 22.049 6.364 21.665 5.908C21.293 5.44 20.765 5.206 20.081 5.206C19.769 5.206 19.469 5.266 19.181 5.386C18.905 5.506 18.653 5.686 18.425 5.926C18.197 6.154 18.005 6.436 17.849 6.772C17.705 7.108 17.609 7.492 17.561 7.924ZM27.2647 13.216C26.7007 13.216 26.2987 13.048 26.0587 12.712C25.8187 12.376 25.6987 11.884 25.6987 11.236V0.184H27.1747V11.344C27.1747 11.584 27.2167 11.752 27.3007 11.848C27.3847 11.944 27.4807 11.992 27.5887 11.992C27.6367 11.992 27.6787 11.992 27.7147 11.992C27.7627 11.992 27.8287 11.98 27.9127 11.956L28.1107 13.072C28.0147 13.12 27.9007 13.156 27.7687 13.18C27.6367 13.204 27.4687 13.216 27.2647 13.216ZM1.476 31V22.252H2.7L2.826 23.512H2.88C3.264 23.092 3.678 22.744 4.122 22.468C4.578 22.18 5.07 22.036 5.598 22.036C6.27 22.036 6.792 22.186 7.164 22.486C7.548 22.774 7.83 23.182 8.01 23.71C8.466 23.206 8.922 22.804 9.378 22.504C9.846 22.192 10.35 22.036 10.89 22.036C11.79 22.036 12.456 22.324 12.888 22.9C13.332 23.476 13.554 24.328 13.554 25.456V31H12.078V25.654C12.078 24.826 11.946 24.232 11.682 23.872C11.418 23.5 11.01 23.314 10.458 23.314C9.798 23.314 9.066 23.764 8.262 24.664V31H6.786V25.654C6.786 24.826 6.654 24.232 6.39 23.872C6.126 23.5 5.712 23.314 5.148 23.314C4.488 23.314 3.756 23.764 2.952 24.664V31H1.476ZM18.4158 31.216C17.6838 31.216 17.0718 31 16.5798 30.568C16.0998 30.136 15.8598 29.524 15.8598 28.732C15.8598 27.772 16.2858 27.04 17.1378 26.536C17.9898 26.02 19.3518 25.66 21.2238 25.456C21.2238 25.18 21.1938 24.91 21.1338 24.646C21.0858 24.382 20.9958 24.148 20.8638 23.944C20.7318 23.74 20.5458 23.578 20.3058 23.458C20.0778 23.326 19.7838 23.26 19.4238 23.26C18.9198 23.26 18.4458 23.356 18.0018 23.548C17.5578 23.74 17.1618 23.956 16.8138 24.196L16.2378 23.17C16.6458 22.906 17.1438 22.654 17.7318 22.414C18.3198 22.162 18.9678 22.036 19.6758 22.036C20.7438 22.036 21.5178 22.366 21.9978 23.026C22.4778 23.674 22.7178 24.544 22.7178 25.636V31H21.4938L21.3678 29.956H21.3138C20.8938 30.304 20.4438 30.604 19.9638 30.856C19.4838 31.096 18.9678 31.216 18.4158 31.216ZM18.8478 30.028C19.2678 30.028 19.6638 29.932 20.0358 29.74C20.4078 29.536 20.8038 29.242 21.2238 28.858V26.428C20.4918 26.524 19.8738 26.638 19.3698 26.77C18.8778 26.902 18.4758 27.058 18.1638 27.238C17.8638 27.418 17.6418 27.628 17.4978 27.868C17.3658 28.096 17.2998 28.348 17.2998 28.624C17.2998 29.128 17.4498 29.488 17.7498 29.704C18.0498 29.92 18.4158 30.028 18.8478 30.028ZM24.5701 34.906C24.2941 34.906 24.0481 34.882 23.8321 34.834C23.6161 34.786 23.4301 34.732 23.2741 34.672L23.5801 33.556C23.6881 33.592 23.8141 33.622 23.9581 33.646C24.1021 33.682 24.2521 33.7 24.4081 33.7C24.8401 33.7 25.1281 33.55 25.2721 33.25C25.4161 32.95 25.4881 32.53 25.4881 31.99V22.252H26.9641V31.99C26.9641 32.878 26.7841 33.586 26.4241 34.114C26.0641 34.642 25.4461 34.906 24.5701 34.906ZM26.2441 20.452C25.9561 20.452 25.7101 20.362 25.5061 20.182C25.3141 20.002 25.2181 19.774 25.2181 19.498C25.2181 19.21 25.3141 18.982 25.5061 18.814C25.7101 18.634 25.9561 18.544 26.2441 18.544C26.5201 18.544 26.7541 18.634 26.9461 18.814C27.1501 18.982 27.2521 19.21 27.2521 19.498C27.2521 19.774 27.1501 20.002 26.9461 20.182C26.7541 20.362 26.5201 20.452 26.2441 20.452ZM33.4634 31.216C32.8754 31.216 32.3234 31.114 31.8074 30.91C31.3034 30.694 30.8594 30.394 30.4754 30.01C30.1034 29.614 29.8094 29.134 29.5934 28.57C29.3774 28.006 29.2694 27.364 29.2694 26.644C29.2694 25.924 29.3774 25.282 29.5934 24.718C29.8214 24.142 30.1154 23.656 30.4754 23.26C30.8474 22.864 31.2674 22.564 31.7354 22.36C32.2034 22.144 32.6894 22.036 33.1934 22.036C33.7454 22.036 34.2374 22.132 34.6694 22.324C35.1134 22.516 35.4794 22.792 35.7674 23.152C36.0674 23.512 36.2954 23.944 36.4514 24.448C36.6074 24.952 36.6854 25.516 36.6854 26.14C36.6854 26.296 36.6794 26.452 36.6674 26.608C36.6674 26.752 36.6554 26.878 36.6314 26.986H30.7274C30.7874 27.922 31.0754 28.666 31.5914 29.218C32.1194 29.758 32.8034 30.028 33.6434 30.028C34.0634 30.028 34.4474 29.968 34.7954 29.848C35.1554 29.716 35.4974 29.548 35.8214 29.344L36.3434 30.316C35.9594 30.556 35.5334 30.766 35.0654 30.946C34.5974 31.126 34.0634 31.216 33.4634 31.216ZM30.7094 25.924H35.3894C35.3894 25.036 35.1974 24.364 34.8134 23.908C34.4414 23.44 33.9134 23.206 33.2294 23.206C32.9174 23.206 32.6174 23.266 32.3294 23.386C32.0534 23.506 31.8014 23.686 31.5734 23.926C31.3454 24.154 31.1534 24.436 30.9974 24.772C30.8534 25.108 30.7574 25.492 30.7094 25.924ZM41.1331 31.216C40.5091 31.216 39.9151 31.102 39.3511 30.874C38.7871 30.646 38.2951 30.358 37.8751 30.01L38.6131 29.02C38.9971 29.332 39.3871 29.584 39.7831 29.776C40.1911 29.968 40.6591 30.064 41.1871 30.064C41.7631 30.064 42.1951 29.932 42.4831 29.668C42.7711 29.404 42.9151 29.08 42.9151 28.696C42.9151 28.468 42.8551 28.27 42.7351 28.102C42.6151 27.934 42.4591 27.79 42.2671 27.67C42.0871 27.538 41.8771 27.424 41.6371 27.328C41.3971 27.232 41.1571 27.136 40.9171 27.04C40.6051 26.932 40.2931 26.812 39.9811 26.68C39.6691 26.536 39.3871 26.368 39.1351 26.176C38.8951 25.972 38.6971 25.738 38.5411 25.474C38.3851 25.21 38.3071 24.892 38.3071 24.52C38.3071 24.172 38.3731 23.848 38.5051 23.548C38.6491 23.236 38.8471 22.972 39.0991 22.756C39.3631 22.528 39.6811 22.354 40.0531 22.234C40.4251 22.102 40.8451 22.036 41.3131 22.036C41.8651 22.036 42.3691 22.132 42.8251 22.324C43.2931 22.516 43.6951 22.75 44.0311 23.026L43.3291 23.962C43.0291 23.734 42.7171 23.548 42.3931 23.404C42.0691 23.26 41.7151 23.188 41.3311 23.188C40.7791 23.188 40.3711 23.314 40.1071 23.566C39.8551 23.818 39.7291 24.112 39.7291 24.448C39.7291 24.652 39.7831 24.832 39.8911 24.988C39.9991 25.132 40.1431 25.264 40.3231 25.384C40.5031 25.492 40.7071 25.594 40.9351 25.69C41.1751 25.774 41.4211 25.864 41.6731 25.96C41.9851 26.08 42.2971 26.206 42.6091 26.338C42.9331 26.47 43.2211 26.638 43.4731 26.842C43.7251 27.034 43.9291 27.274 44.0851 27.562C44.2531 27.85 44.3371 28.198 44.3371 28.606C44.3371 28.966 44.2651 29.302 44.1211 29.614C43.9891 29.926 43.7851 30.202 43.5091 30.442C43.2451 30.682 42.9091 30.868 42.5011 31C42.1051 31.144 41.6491 31.216 41.1331 31.216ZM48.7905 31.216C48.3225 31.216 47.9265 31.144 47.6025 31C47.2905 30.856 47.0325 30.658 46.8285 30.406C46.6365 30.154 46.4985 29.848 46.4145 29.488C46.3305 29.128 46.2885 28.732 46.2885 28.3V23.458H44.9925V22.342L46.3605 22.252L46.5405 19.804H47.7825V22.252H50.1405V23.458H47.7825V28.318C47.7825 28.858 47.8785 29.278 48.0705 29.578C48.2745 29.866 48.6285 30.01 49.1325 30.01C49.2885 30.01 49.4565 29.986 49.6365 29.938C49.8165 29.89 49.9785 29.836 50.1225 29.776L50.4105 30.892C50.1705 30.976 49.9065 31.048 49.6185 31.108C49.3425 31.18 49.0665 31.216 48.7905 31.216ZM52.1186 31V22.252H53.5946V31H52.1186ZM52.8746 20.452C52.5866 20.452 52.3406 20.362 52.1366 20.182C51.9446 20.002 51.8486 19.774 51.8486 19.498C51.8486 19.21 51.9446 18.982 52.1366 18.814C52.3406 18.634 52.5866 18.544 52.8746 18.544C53.1626 18.544 53.4026 18.634 53.5946 18.814C53.7986 18.982 53.9006 19.21 53.9006 19.498C53.9006 19.774 53.7986 20.002 53.5946 20.182C53.4026 20.362 53.1626 20.452 52.8746 20.452ZM60.0043 31.216C59.4283 31.216 58.8883 31.114 58.3843 30.91C57.8803 30.706 57.4423 30.412 57.0703 30.028C56.7103 29.632 56.4223 29.152 56.2063 28.588C56.0023 28.012 55.9003 27.364 55.9003 26.644C55.9003 25.912 56.0143 25.264 56.2423 24.7C56.4703 24.124 56.7763 23.638 57.1603 23.242C57.5443 22.846 57.9883 22.546 58.4923 22.342C59.0083 22.138 59.5483 22.036 60.1123 22.036C60.6883 22.036 61.1803 22.138 61.5883 22.342C61.9963 22.546 62.3563 22.786 62.6683 23.062L61.9123 24.034C61.6603 23.806 61.3903 23.62 61.1023 23.476C60.8263 23.332 60.5143 23.26 60.1663 23.26C59.7703 23.26 59.4043 23.344 59.0683 23.512C58.7323 23.668 58.4443 23.896 58.2043 24.196C57.9643 24.496 57.7723 24.856 57.6283 25.276C57.4963 25.684 57.4303 26.14 57.4303 26.644C57.4303 27.148 57.4963 27.604 57.6283 28.012C57.7603 28.42 57.9403 28.774 58.1683 29.074C58.4083 29.362 58.6963 29.59 59.0323 29.758C59.3683 29.914 59.7343 29.992 60.1303 29.992C60.5383 29.992 60.9103 29.908 61.2463 29.74C61.5943 29.56 61.9063 29.35 62.1823 29.11L62.8303 30.1C62.4343 30.448 61.9963 30.724 61.5163 30.928C61.0363 31.12 60.5323 31.216 60.0043 31.216Z" fill="#EAEAEA"/>
</svg>
