<svg width="27" height="18" viewBox="0 0 27 18" fill="none" xmlns="http://www.w3.org/2000/svg">
<path d="M16.9729 0.671995C16.7592 0.885403 16.6383 1.17458 16.6366 1.47664C16.6349 1.7787 16.7526 2.06921 16.964 2.28499L22.2939 7.62399H2.00895C1.71258 7.63277 1.43129 7.75668 1.22476 7.96942C1.01823 8.18216 0.90271 8.46699 0.90271 8.7635C0.90271 9.06 1.01823 9.34483 1.22476 9.55757C1.43129 9.77031 1.71258 9.89421 2.00895 9.903H22.285L16.9549 15.242C16.7455 15.4588 16.6292 15.7489 16.6308 16.0503C16.6325 16.3518 16.7521 16.6406 16.964 16.855C17.1778 17.0651 17.466 17.1821 17.7658 17.1804C18.0656 17.1787 18.3525 17.0585 18.5639 16.846L25.7869 9.56999C25.8856 9.46455 25.9658 9.34318 26.0239 9.211C26.0833 9.07265 26.1132 8.92351 26.1119 8.77299C26.1127 8.47423 25.9964 8.18707 25.7879 7.97299L18.568 0.697995C18.4657 0.590244 18.343 0.50397 18.207 0.444222C18.071 0.384474 17.9244 0.352454 17.7759 0.350032C17.6274 0.347611 17.4799 0.374839 17.342 0.430122C17.2041 0.485405 17.0787 0.567634 16.9729 0.671995Z" fill="white"/>
</svg>
