<svg width="17" height="14" viewBox="0 0 17 14" fill="none" xmlns="http://www.w3.org/2000/svg">
<path d="M15.2528 3.44075C15.2632 3.59186 15.2632 3.74297 15.2632 3.89408C15.2722 5.19838 15.022 6.49148 14.527 7.69825C14.032 8.90502 13.3022 10.0014 12.3799 10.9237C11.4576 11.846 10.3612 12.5758 9.15445 13.0708C7.94768 13.5658 6.65458 13.816 5.35028 13.807C3.45343 13.8119 1.59554 13.2688 0 12.243C0.279413 12.2738 0.560393 12.2884 0.8415 12.2864C2.40964 12.2904 3.93343 11.7661 5.16706 10.798C4.44027 10.7841 3.7359 10.5439 3.15204 10.1109C2.56818 9.67788 2.1339 9.07355 1.90967 8.38208C2.12837 8.41666 2.34937 8.43465 2.57078 8.43591C2.88025 8.43493 3.18836 8.39495 3.48783 8.31691C2.69816 8.158 1.98792 7.73044 1.47791 7.10696C0.967904 6.48348 0.689619 5.70258 0.690389 4.89708V4.85364C1.17353 5.12353 1.71366 5.27531 2.26667 5.29658C1.52693 4.80359 1.00322 4.04687 0.802431 3.18088C0.601642 2.31489 0.738912 1.40491 1.18622 0.636691C2.06144 1.71384 3.15329 2.59501 4.39096 3.22303C5.62864 3.85106 6.9845 4.21194 8.37061 4.28225C8.31482 4.01986 8.28602 3.75244 8.28467 3.48419C8.28545 2.78537 8.49613 2.10289 8.8894 1.52524C9.28268 0.94758 9.84041 0.50138 10.4903 0.244478C11.1402 -0.0124235 11.8523 -0.0681796 12.5342 0.0844379C13.2162 0.237055 13.8366 0.591008 14.3149 1.10041C15.0958 0.950282 15.8445 0.665542 16.5278 0.258913C16.2679 1.06409 15.7233 1.7468 14.9959 2.17897C15.687 2.09995 16.3625 1.91819 17 1.63969C16.523 2.33403 15.9323 2.94293 15.2528 3.44075Z" fill="#D5D5D5" fill-opacity="0.89"/>
</svg>
