<svg width="17" height="18" viewBox="0 0 17 18" fill="none" xmlns="http://www.w3.org/2000/svg">
<path d="M16.4693 0.0381918L0.210408 7.1241C0.145993 7.15497 0.0918193 7.20372 0.0543504 7.26453C0.0168814 7.32534 -0.00230003 7.39565 -0.000905598 7.46707C0.000488834 7.53848 0.0224006 7.60799 0.0622149 7.66729C0.102029 7.72659 0.158064 7.77319 0.223635 7.80152L4.62635 10.2873C4.75326 10.3589 4.89915 10.3897 5.04419 10.3755C5.18922 10.3613 5.32636 10.3028 5.43698 10.2079L14.1092 2.73178C14.1668 2.68265 14.3038 2.59006 14.3577 2.64297C14.4115 2.69588 14.3265 2.83193 14.2783 2.89145L6.77574 11.3426C6.67288 11.4572 6.61029 11.6023 6.5975 11.7558C6.58471 11.9093 6.62242 12.0628 6.70488 12.1929L9.57893 16.8035C9.61133 16.8652 9.66019 16.9168 9.72009 16.9525C9.78 16.9882 9.84862 17.0067 9.91835 17.0058C9.98809 17.0049 10.0562 16.9847 10.1152 16.9475C10.1742 16.9103 10.2217 16.8575 10.2526 16.795L16.97 0.529482C16.999 0.459808 17.0065 0.383047 16.9915 0.309088C16.9765 0.235128 16.9396 0.167357 16.8858 0.114504C16.8319 0.0616505 16.7634 0.0261365 16.6892 0.0125357C16.615 -0.00106507 16.5384 0.00787066 16.4693 0.0381918Z" fill="#D5D5D5" fill-opacity="0.89"/>
</svg>
