<svg width="17" height="17" viewBox="0 0 17 17" fill="none" xmlns="http://www.w3.org/2000/svg">
<path d="M8.65394 7.36996e-05C7.56219 -0.00439977 6.48026 0.206271 5.46995 0.620052C4.45964 1.03383 3.54076 1.64261 2.76579 2.41162C1.99082 3.18062 1.37496 4.09477 0.95339 5.10185C0.531817 6.10894 0.312794 7.18921 0.308833 8.28096C0.306852 9.78949 0.721251 11.2693 1.50639 12.5574L0 17.0001L4.62022 15.5362C5.88768 16.2316 7.31381 16.5863 8.75935 16.5659C10.2049 16.5454 11.6204 16.1504 12.8677 15.4195C14.1149 14.6885 15.1513 13.6465 15.8756 12.3954C16.5999 11.1442 16.9873 9.72659 17 8.28096C16.996 7.18913 16.777 6.10878 16.3554 5.10164C15.9337 4.09449 15.3178 3.18029 14.5427 2.41128C13.7676 1.64227 12.8486 1.0335 11.8382 0.61978C10.8278 0.206055 9.74577 -0.00452417 8.65394 7.36996e-05ZM12.8038 11.4279C12.6383 11.6811 12.4213 11.8967 12.167 12.0605C11.9127 12.2244 11.6267 12.3329 11.3277 12.3789C10.9367 12.3997 10.9253 12.6821 8.79089 11.7556C7.32734 11.0017 6.1075 9.84829 5.27283 8.42924C4.79864 7.78222 4.52506 7.01009 4.48611 6.20885C4.49276 5.87897 4.56847 5.55413 4.70836 5.25531C4.84826 4.95648 5.04924 4.69029 5.29833 4.47391C5.37387 4.39721 5.46382 4.33621 5.56301 4.29439C5.66221 4.25257 5.76869 4.23077 5.87633 4.23024C6.04444 4.23024 6.15306 4.22552 6.27772 4.23024C6.40239 4.23496 6.58844 4.2038 6.74994 4.63352C6.91144 5.06324 7.29772 6.11913 7.34778 6.2268C7.37894 6.28369 7.39528 6.34751 7.39528 6.41238C7.39528 6.47725 7.37894 6.54107 7.34778 6.59796C7.28904 6.72309 7.21271 6.83917 7.12111 6.94269C7.00967 7.06169 6.88689 7.20996 6.78772 7.30157C6.68856 7.39319 6.56106 7.51313 6.67722 7.72941C6.97801 8.2865 7.35996 8.79578 7.81056 9.24052C8.29971 9.70557 8.86599 10.082 9.48411 10.3531C9.69378 10.4674 9.81844 10.4541 9.94783 10.3181C10.0772 10.1821 10.5032 9.7203 10.6533 9.51441C10.8035 9.30852 10.9442 9.34818 11.1369 9.42563C11.3296 9.50307 12.3571 10.0537 12.5668 10.168C12.7764 10.2822 12.9153 10.3399 12.9653 10.4296C13.0104 10.7704 12.9542 11.1169 12.8038 11.426V11.4279Z" fill="#D5D5D5" fill-opacity="0.89"/>
</svg>
