<svg width="170" height="16" viewBox="0 0 170 16" fill="none" xmlns="http://www.w3.org/2000/svg">
<path d="M9.14286 8.28571C9.14286 9.54464 8.11607 10.5714 6.85714 10.5714C5.59821 10.5714 4.57143 9.54464 4.57143 8.28571C4.57143 7.02679 5.59821 6 6.85714 6C8.11607 6 9.14286 7.02679 9.14286 8.28571ZM10.375 8.28571C10.375 6.33929 8.80357 4.76786 6.85714 4.76786C4.91071 4.76786 3.33929 6.33929 3.33929 8.28571C3.33929 10.2321 4.91071 11.8036 6.85714 11.8036C8.80357 11.8036 10.375 10.2321 10.375 8.28571ZM11.3393 4.625C11.3393 4.16964 10.9732 3.80357 10.5179 3.80357C10.0625 3.80357 9.69643 4.16964 9.69643 4.625C9.69643 5.08036 10.0625 5.44643 10.5179 5.44643C10.9732 5.44643 11.3393 5.08036 11.3393 4.625ZM6.85714 2.66071C7.85714 2.66071 10 2.58036 10.9018 2.9375C11.2143 3.0625 11.4464 3.21428 11.6875 3.45536C11.9286 3.69643 12.0804 3.92857 12.2054 4.24107C12.5625 5.14286 12.4821 7.28571 12.4821 8.28571C12.4821 9.28571 12.5625 11.4286 12.2054 12.3304C12.0804 12.6429 11.9286 12.875 11.6875 13.1161C11.4464 13.3571 11.2143 13.5089 10.9018 13.6339C10 13.9911 7.85714 13.9107 6.85714 13.9107C5.85714 13.9107 3.71429 13.9911 2.8125 13.6339C2.5 13.5089 2.26786 13.3571 2.02679 13.1161C1.78571 12.875 1.63393 12.6429 1.50893 12.3304C1.15179 11.4286 1.23214 9.28571 1.23214 8.28571C1.23214 7.28571 1.15179 5.14286 1.50893 4.24107C1.63393 3.92857 1.78571 3.69643 2.02679 3.45536C2.26786 3.21428 2.5 3.0625 2.8125 2.9375C3.71429 2.58036 5.85714 2.66071 6.85714 2.66071ZM13.7143 8.28571C13.7143 7.33929 13.7232 6.40179 13.6696 5.45536C13.6161 4.35714 13.3661 3.38393 12.5625 2.58036C11.7589 1.77678 10.7857 1.52678 9.6875 1.47321C8.74107 1.41964 7.80357 1.42857 6.85714 1.42857C5.91071 1.42857 4.97321 1.41964 4.02679 1.47321C2.92857 1.52678 1.95536 1.77678 1.15179 2.58036C0.348214 3.38393 0.0982143 4.35714 0.0446429 5.45536C-0.00892857 6.40179 0 7.33929 0 8.28571C0 9.23214 -0.00892857 10.1696 0.0446429 11.1161C0.0982143 12.2143 0.348214 13.1875 1.15179 13.9911C1.95536 14.7946 2.92857 15.0446 4.02679 15.0982C4.97321 15.1518 5.91071 15.1429 6.85714 15.1429C7.80357 15.1429 8.74107 15.1518 9.6875 15.0982C10.7857 15.0446 11.7589 14.7946 12.5625 13.9911C13.3661 13.1875 13.6161 12.2143 13.6696 11.1161C13.7232 10.1696 13.7143 9.23214 13.7143 8.28571ZM56.183 3.92857C55.6652 4.15178 55.1027 4.3125 54.5223 4.375C55.1205 4.01786 55.5759 3.45536 55.7902 2.78571C55.2366 3.11607 54.6116 3.35714 53.9598 3.48214C53.433 2.91964 52.683 2.57143 51.8527 2.57143C50.2545 2.57143 48.9688 3.86607 48.9688 5.45536C48.9688 5.67857 48.9955 5.90178 49.0402 6.11607C46.6473 5.99107 44.5134 4.84821 43.0938 3.09821C42.8438 3.52678 42.7009 4.01786 42.7009 4.55357C42.7009 5.55357 43.2098 6.4375 43.9866 6.95536C43.5134 6.9375 43.067 6.80357 42.683 6.58929C42.683 6.59821 42.683 6.61607 42.683 6.625C42.683 8.02679 43.6741 9.1875 44.9955 9.45536C44.7545 9.51786 44.4955 9.55357 44.2366 9.55357C44.0491 9.55357 43.8705 9.53571 43.692 9.50893C44.058 10.6518 45.1205 11.4821 46.3884 11.5089C45.3973 12.2857 44.1562 12.7411 42.808 12.7411C42.567 12.7411 42.3438 12.7321 42.1116 12.7054C43.3884 13.5268 44.9063 14 46.5402 14C51.8438 14 54.7455 9.60714 54.7455 5.79464C54.7455 5.66964 54.7455 5.54464 54.7366 5.41964C55.2991 5.00893 55.7902 4.5 56.183 3.92857ZM89.1406 0.392857C88.8996 0.357142 88.0692 0.285713 87.1049 0.285713C85.0871 0.285713 83.7031 1.51786 83.7031 3.77678V5.72321H81.4263V8.36607H83.7031V15.1429H86.4353V8.36607H88.7031L89.0513 5.72321H86.4353V4.03571C86.4353 3.27678 86.6406 2.75 87.7388 2.75H89.1406V0.392857ZM122.862 13.6786C122.156 13.9732 121.388 14.1429 120.576 14.1429C119.156 14.1429 117.862 13.6339 116.844 12.8036C116.844 12.8036 116.924 12.8571 116.978 12.9018C118.103 10.4554 121.576 9.24107 121.576 9.24107C121.585 9.24107 121.603 9.23214 121.612 9.23214C122.433 11.375 122.772 13.1607 122.862 13.6786ZM121.21 8.25893C121.138 8.28571 121.058 8.30357 120.978 8.33036C120.978 8.33036 117.817 9.34821 116.219 12.1964C115.29 11.1607 114.719 9.78571 114.719 8.28571C114.719 8.22321 114.719 8.16071 114.728 8.09821C114.826 8.09821 117.719 8.16964 120.737 7.26786C120.906 7.59821 121.067 7.92857 121.21 8.25893ZM120.254 6.36607C117.442 7.10714 114.996 7.08036 114.844 7.08036C115.228 5.26786 116.442 3.75893 118.076 2.99107C118.156 3.09821 119.237 4.5625 120.254 6.36607ZM126.362 9.21429C126.094 10.8482 125.165 12.2589 123.853 13.1429C123.79 12.7946 123.478 11.0714 122.71 8.95536C124.603 8.66071 126.237 9.17857 126.362 9.21429ZM119.174 2.59821C119.165 2.59821 119.156 2.60714 119.156 2.60714C119.165 2.59821 119.165 2.59821 119.174 2.59821ZM124.442 3.89286C124.424 3.91964 123.594 5.1875 121.388 6.00893C120.388 4.16964 119.281 2.71428 119.192 2.59821C119.638 2.49107 120.103 2.42857 120.576 2.42857C122.058 2.42857 123.415 2.98214 124.442 3.89286ZM126.433 8.22321C126.362 8.21429 124.371 7.77679 122.353 8.03571C122.308 7.9375 122.272 7.83036 122.228 7.73214C122.103 7.44643 121.969 7.16071 121.835 6.88393C124.147 5.9375 125.085 4.58036 125.103 4.5625C125.924 5.5625 126.415 6.83929 126.433 8.22321ZM127.433 8.28571C127.433 4.5 124.362 1.42857 120.576 1.42857C116.79 1.42857 113.719 4.5 113.719 8.28571C113.719 12.0714 116.79 15.1429 120.576 15.1429C124.362 15.1429 127.433 12.0714 127.433 8.28571ZM167.938 3.3125V4.41964H163.375V3.3125H167.938ZM165.688 7.11607C166.813 7.11607 167.375 7.77679 167.473 8.85714H163.83C163.902 7.78571 164.616 7.11607 165.688 7.11607ZM165.83 12.3393C164.518 12.3393 163.83 11.5714 163.83 10.2679H169.705C169.714 10.1339 169.723 9.99107 169.723 9.84821C169.723 7.4375 168.312 5.42857 165.759 5.42857C163.277 5.42857 161.589 7.29464 161.589 9.74107C161.589 12.2768 163.188 14.0179 165.759 14.0179C167.705 14.0179 168.964 13.1429 169.571 11.2768H167.598C167.384 11.9732 166.509 12.3393 165.83 12.3393ZM153.911 11.8929V8.79464H156.607C157.696 8.79464 158.384 9.25 158.384 10.4018C158.384 11.5357 157.563 11.8929 156.554 11.8929H153.911ZM153.911 7.09821V4.47321H156.232C157.125 4.47321 157.929 4.72321 157.929 5.75893C157.929 6.71429 157.304 7.09821 156.42 7.09821H153.911ZM151.438 2.55357V13.8036H156.893C158.938 13.8036 160.857 12.8214 160.857 10.5357C160.857 9.125 160.188 8.08036 158.804 7.6875C159.812 7.20536 160.339 6.47321 160.339 5.33928C160.339 3.09821 158.67 2.55357 156.741 2.55357H151.438Z" fill="#F0F0F0"/>
</svg>
