<svg width="17" height="17" viewBox="0 0 17 17" fill="none" xmlns="http://www.w3.org/2000/svg">
<path d="M16.5149 12.0129L12.7958 10.4188C12.6369 10.3513 12.4605 10.3371 12.2929 10.3785C12.1253 10.4199 11.9757 10.5146 11.8665 10.6483L10.2195 12.6599C7.63475 11.4415 5.55458 9.36165 4.33578 6.77714L6.34738 5.13009C6.48135 5.02112 6.57621 4.8715 6.61761 4.70384C6.65901 4.53618 6.64471 4.3596 6.57687 4.20079L4.98365 0.48171C4.90892 0.310558 4.7768 0.170859 4.61007 0.0867195C4.44334 0.00258045 4.25248 -0.0207204 4.0704 0.0208379L0.617644 0.816975C0.441956 0.857567 0.285223 0.95653 0.173041 1.0977C0.0608595 1.23887 -0.000141665 1.41391 2.47046e-07 1.59422C-0.000123804 3.61738 0.39829 5.62074 1.17249 7.48991C1.94669 9.35907 3.08151 11.0574 4.51214 12.488C5.94277 13.9185 7.64119 15.0532 9.5104 15.8273C11.3796 16.6014 13.383 16.9997 15.4061 16.9994C15.5865 16.9996 15.7615 16.9386 15.9027 16.8264C16.0438 16.7142 16.1428 16.5575 16.1834 16.3818L16.9805 12.929C17.0215 12.746 16.9974 12.5544 16.9125 12.3872C16.8275 12.22 16.6869 12.0877 16.5149 12.0129Z" fill="#D5D5D5" fill-opacity="0.89"/>
</svg>
