<svg width="127" height="45" viewBox="0 0 127 45" fill="none" xmlns="http://www.w3.org/2000/svg">
<path d="M42.9123 10.8499C42.9123 9.89278 43.0608 9.03766 43.3577 8.28452C43.6546 7.53138 44.053 6.89592 44.5531 6.37814C45.0687 5.86036 45.6547 5.4681 46.311 5.20136C46.9673 4.91893 47.6549 4.77772 48.3737 4.77772C49.0925 4.77772 49.78 4.91893 50.4363 5.20136C51.1083 5.4681 51.6943 5.86036 52.1943 6.37814C52.6943 6.89592 53.0928 7.53138 53.3897 8.28452C53.7022 9.03766 53.8585 9.89278 53.8585 10.8499C53.8585 11.807 53.7022 12.6621 53.3897 13.4153C53.0928 14.1684 52.6943 14.8039 52.1943 15.3217C51.6943 15.8394 51.1083 16.2317 50.4363 16.4984C49.78 16.7652 49.0925 16.8985 48.3737 16.8985C47.6549 16.8985 46.9673 16.7652 46.311 16.4984C45.6547 16.2317 45.0687 15.8394 44.5531 15.3217C44.053 14.8039 43.6546 14.1684 43.3577 13.4153C43.0608 12.6621 42.9123 11.807 42.9123 10.8499ZM45.6782 10.8499C45.6782 12.011 45.9125 12.9446 46.3813 13.6506C46.8657 14.341 47.5299 14.6862 48.3737 14.6862C49.2175 14.6862 49.8816 14.341 50.366 13.6506C50.8504 12.9446 51.0927 12.011 51.0927 10.8499C51.0927 9.67312 50.8504 8.73954 50.366 8.04916C49.8816 7.3431 49.2175 6.99006 48.3737 6.99006C47.5299 6.99006 46.8657 7.3431 46.3813 8.04916C45.9125 8.73954 45.6782 9.67312 45.6782 10.8499Z" fill="white"/>
<path d="M56.925 7.20188H55.2843V5.17782L57.0657 5.06015L57.3938 1.90638H59.644V5.06015H62.5739V7.20188H59.644V12.7092C59.644 14.0586 60.1831 14.7333 61.2613 14.7333C61.4645 14.7333 61.6676 14.7097 61.8707 14.6627C62.0895 14.6156 62.2848 14.5528 62.4567 14.4744L62.9255 16.4749C62.613 16.5847 62.2536 16.6789 61.8473 16.7573C61.4566 16.8515 61.0347 16.8985 60.5816 16.8985C59.9096 16.8985 59.3393 16.7965 58.8705 16.5926C58.4173 16.3886 58.0423 16.1062 57.7454 15.7453C57.4641 15.3687 57.2532 14.9294 57.1125 14.4273C56.9875 13.9095 56.925 13.3368 56.925 12.7092V7.20188Z" fill="white"/>
<path d="M64.0169 10.8499C64.0169 9.90847 64.1654 9.06119 64.4623 8.30805C64.7592 7.55492 65.1498 6.91946 65.6342 6.40167C66.1343 5.88389 66.7046 5.48379 67.3453 5.20136C67.986 4.91893 68.6423 4.77772 69.3142 4.77772C70.0955 4.77772 70.7831 4.91109 71.3769 5.17782C71.9707 5.44456 72.4629 5.82113 72.8536 6.30753C73.2598 6.79393 73.5646 7.37448 73.7677 8.04916C73.9708 8.72385 74.0724 9.4613 74.0724 10.2615C74.0724 10.795 74.0333 11.2186 73.9552 11.5324H66.6421C66.7671 12.5837 67.1265 13.3917 67.7203 13.9566C68.3298 14.5214 69.1033 14.8039 70.0408 14.8039C70.5409 14.8039 71.0018 14.7333 71.4238 14.5921C71.8613 14.4351 72.291 14.2233 72.7129 13.9566L73.6271 15.6512C73.0801 16.012 72.4707 16.3101 71.7988 16.5455C71.1269 16.7809 70.4237 16.8985 69.6892 16.8985C68.8923 16.8985 68.15 16.7652 67.4625 16.4984C66.7749 16.216 66.1733 15.8159 65.6577 15.2981C65.142 14.7803 64.7357 14.1527 64.4388 13.4153C64.1575 12.6621 64.0169 11.807 64.0169 10.8499ZM71.7285 9.81433C71.7285 8.8886 71.5331 8.16684 71.1425 7.64906C70.7674 7.13128 70.1815 6.87239 69.3845 6.87239C68.697 6.87239 68.0954 7.12343 67.5797 7.62552C67.064 8.11192 66.7437 8.84153 66.6187 9.81433H71.7285Z" fill="white"/>
<path d="M76.6469 0H79.3424V13.7918C79.3424 14.1213 79.4049 14.3567 79.5299 14.4979C79.6549 14.6234 79.7878 14.6862 79.9284 14.6862C79.9909 14.6862 80.0456 14.6862 80.0925 14.6862C80.155 14.6862 80.2409 14.6705 80.3503 14.6391L80.7019 16.6632C80.3425 16.8201 79.8659 16.8985 79.2721 16.8985C78.3033 16.8985 77.6235 16.6083 77.2329 16.0277C76.8422 15.4472 76.6469 14.6548 76.6469 13.6506V0Z" fill="white"/>
<path d="M43.6624 28.5957H45.8891L46.0766 30.1726H46.1704C46.6548 29.6548 47.1783 29.2155 47.7408 28.8546C48.319 28.4937 48.9675 28.3133 49.6863 28.3133C50.5301 28.3133 51.202 28.4937 51.7021 28.8546C52.2177 29.2155 52.6084 29.7254 52.874 30.3844C53.421 29.7882 53.9913 29.2939 54.5851 28.9017C55.1789 28.5094 55.843 28.3133 56.5775 28.3133C57.7963 28.3133 58.6948 28.7134 59.273 29.5136C59.8512 30.2981 60.1403 31.4278 60.1403 32.9027V40.1517H57.4213V33.2558C57.4213 32.2986 57.2728 31.624 56.9759 31.2317C56.6947 30.8394 56.2571 30.6433 55.6633 30.6433C54.9445 30.6433 54.1398 31.1219 53.2491 32.079V40.1517H50.5535V33.2558C50.5535 32.2986 50.4051 31.624 50.1082 31.2317C49.8269 30.8394 49.3816 30.6433 48.7721 30.6433C48.0533 30.6433 47.2486 31.1219 46.3579 32.079V40.1517H43.6624V28.5957Z" fill="white"/>
<path d="M62.9242 37.045C62.9242 35.8054 63.4633 34.8483 64.5415 34.1736C65.6198 33.499 67.3386 33.0282 69.6982 32.7615C69.6982 32.4634 69.6591 32.181 69.581 31.9142C69.5029 31.6318 69.3779 31.3886 69.206 31.1846C69.0497 30.965 68.8388 30.8002 68.5731 30.6904C68.3231 30.5649 68.0028 30.5021 67.6121 30.5021C67.0339 30.5021 66.4714 30.6119 65.9245 30.8316C65.3932 31.0513 64.8775 31.318 64.3775 31.6318L63.393 29.8196C64.0337 29.4116 64.7447 29.0586 65.526 28.7605C66.3229 28.4623 67.1824 28.3133 68.1043 28.3133C69.5576 28.3133 70.6358 28.7448 71.339 29.6077C72.0421 30.455 72.3937 31.6867 72.3937 33.3028V40.1517H70.1904L69.9795 38.8808H69.9092C69.3935 39.3201 68.8388 39.6888 68.245 39.9869C67.6668 40.285 67.0339 40.4341 66.3464 40.4341C65.3307 40.4341 64.5025 40.1281 63.8618 39.5162C63.2368 38.8886 62.9242 38.0649 62.9242 37.045ZM65.5494 36.8332C65.5494 37.3509 65.6979 37.7275 65.9948 37.9629C66.3073 38.1982 66.7058 38.3159 67.1902 38.3159C67.659 38.3159 68.0887 38.2061 68.4794 37.9864C68.87 37.7667 69.2763 37.4529 69.6982 37.045V34.4561C68.9169 34.5502 68.2606 34.6757 67.7293 34.8326C67.198 34.9895 66.7683 35.17 66.4401 35.374C66.1276 35.5622 65.901 35.7819 65.7604 36.033C65.6198 36.284 65.5494 36.5507 65.5494 36.8332Z" fill="white"/>
<path d="M75.7089 28.5957H78.4279V40.7401C78.4279 41.352 78.3654 41.9168 78.2404 42.4346C78.1154 42.9524 77.9044 43.3996 77.6075 43.7761C77.3263 44.1684 76.9512 44.4665 76.4824 44.6705C76.0137 44.8902 75.4433 45 74.7714 45C74.3495 45 73.9901 44.9686 73.6932 44.9059C73.3806 44.8431 73.115 44.7725 72.8962 44.694L73.4119 42.67C73.5682 42.717 73.7322 42.7563 73.9041 42.7877C74.0604 42.8347 74.2245 42.8583 74.3963 42.8583C74.912 42.8583 75.2558 42.6778 75.4277 42.3169C75.6152 41.9718 75.7089 41.4618 75.7089 40.7871V28.5957ZM77.0684 26.5717C76.5996 26.5717 76.2012 26.4304 75.873 26.148C75.5605 25.8656 75.4042 25.4969 75.4042 25.0418C75.4042 24.5868 75.5605 24.2181 75.873 23.9357C76.2012 23.6376 76.5996 23.4885 77.0684 23.4885C77.5528 23.4885 77.9513 23.6376 78.2638 23.9357C78.592 24.2181 78.7561 24.5868 78.7561 25.0418C78.7561 25.4969 78.592 25.8656 78.2638 26.148C77.9513 26.4304 77.5528 26.5717 77.0684 26.5717Z" fill="white"/>
<path d="M81.0929 34.3855C81.0929 33.444 81.2413 32.5968 81.5382 31.8436C81.8351 31.0905 82.2258 30.455 82.7102 29.9372C83.2102 29.4195 83.7806 29.0194 84.4213 28.7369C85.0619 28.4545 85.7182 28.3133 86.3902 28.3133C87.1715 28.3133 87.859 28.4467 88.4528 28.7134C89.0466 28.9801 89.5389 29.3567 89.9295 29.8431C90.3358 30.3295 90.6405 30.91 90.8437 31.5847C91.0468 32.2594 91.1484 32.9969 91.1484 33.7971C91.1484 34.3305 91.1093 34.7542 91.0312 35.068H83.7181C83.8431 36.1192 84.2025 36.9273 84.7963 37.4922C85.4057 38.057 86.1792 38.3394 87.1168 38.3394C87.6168 38.3394 88.0778 38.2688 88.4997 38.1276C88.9372 37.9707 89.367 37.7589 89.7889 37.4922L90.703 39.1867C90.1561 39.5476 89.5467 39.8457 88.8747 40.0811C88.2028 40.3164 87.4996 40.4341 86.7652 40.4341C85.9683 40.4341 85.226 40.3007 84.5385 40.034C83.8509 39.7516 83.2493 39.3515 82.7336 38.8337C82.218 38.3159 81.8117 37.6883 81.5148 36.9508C81.2335 36.1977 81.0929 35.3426 81.0929 34.3855ZM88.8044 33.3499C88.8044 32.4242 88.6091 31.7024 88.2184 31.1846C87.8434 30.6668 87.2574 30.4079 86.4605 30.4079C85.7729 30.4079 85.1713 30.659 84.6557 31.1611C84.14 31.6475 83.8197 32.3771 83.6946 33.3499H88.8044Z" fill="white"/>
<path d="M93.84 37.092C94.3557 37.5 94.8636 37.8217 95.3636 38.057C95.8793 38.2767 96.434 38.3865 97.0278 38.3865C97.6529 38.3865 98.1138 38.261 98.4107 38.0099C98.7076 37.7432 98.8561 37.4059 98.8561 36.9979C98.8561 36.7626 98.7858 36.5586 98.6451 36.386C98.5045 36.1977 98.317 36.0329 98.0826 35.8917C97.8482 35.7505 97.5825 35.625 97.2856 35.5152C96.9887 35.3896 96.6918 35.2641 96.3949 35.1386C96.0199 34.9974 95.6371 34.8326 95.2464 34.6444C94.8558 34.4561 94.5042 34.2286 94.1916 33.9618C93.8947 33.6951 93.6447 33.3891 93.4416 33.0439C93.2541 32.6831 93.1603 32.2594 93.1603 31.773C93.1603 30.7531 93.5353 29.9215 94.2854 29.2782C95.0355 28.6349 96.059 28.3133 97.3559 28.3133C98.1529 28.3133 98.8717 28.4545 99.5124 28.7369C100.153 29.0194 100.708 29.341 101.177 29.7019L99.9343 31.3494C99.528 31.0513 99.1139 30.8159 98.692 30.6433C98.2857 30.455 97.856 30.3609 97.4028 30.3609C96.8247 30.3609 96.3949 30.4864 96.1137 30.7374C95.848 30.9728 95.7152 31.2709 95.7152 31.6318C95.7152 31.8672 95.7777 32.0711 95.9027 32.2437C96.0433 32.4006 96.2231 32.5418 96.4418 32.6674C96.6606 32.7929 96.9106 32.9106 97.1919 33.0204C97.4888 33.1302 97.7935 33.2401 98.106 33.3499C98.4967 33.4911 98.8873 33.6559 99.278 33.8441C99.6686 34.0167 100.02 34.2364 100.333 34.5031C100.661 34.7699 100.919 35.0994 101.106 35.4916C101.309 35.8682 101.411 36.3232 101.411 36.8567C101.411 37.3588 101.309 37.8295 101.106 38.2688C100.919 38.6925 100.637 39.069 100.262 39.3985C99.8874 39.7123 99.4186 39.9634 98.8561 40.1517C98.2935 40.34 97.6529 40.4341 96.934 40.4341C96.1371 40.4341 95.348 40.285 94.5667 39.9869C93.801 39.6731 93.1369 39.2887 92.5743 38.8337L93.84 37.092Z" fill="white"/>
<path d="M104.216 30.7374H102.575V28.7134L104.356 28.5957L104.685 25.4419H106.935V28.5957H109.865V30.7374H106.935V36.2448C106.935 37.5941 107.474 38.2688 108.552 38.2688C108.755 38.2688 108.958 38.2453 109.162 38.1982C109.38 38.1512 109.576 38.0884 109.748 38.0099L110.216 40.0105C109.904 40.1203 109.544 40.2144 109.138 40.2929C108.747 40.387 108.326 40.4341 107.872 40.4341C107.2 40.4341 106.63 40.3321 106.161 40.1281C105.708 39.9242 105.333 39.6417 105.036 39.2809C104.755 38.9043 104.544 38.465 104.403 37.9629C104.278 37.4451 104.216 36.8724 104.216 36.2448V30.7374Z" fill="white"/>
<path d="M113.646 26.5717C113.162 26.5717 112.763 26.4304 112.451 26.148C112.138 25.8656 111.982 25.4969 111.982 25.0418C111.982 24.5868 112.138 24.2181 112.451 23.9357C112.763 23.6376 113.162 23.4885 113.646 23.4885C114.131 23.4885 114.529 23.6376 114.842 23.9357C115.154 24.2181 115.31 24.5868 115.31 25.0418C115.31 25.4969 115.154 25.8656 114.842 26.148C114.529 26.4304 114.131 26.5717 113.646 26.5717ZM112.287 28.5957H114.982V40.1517H112.287V28.5957Z" fill="white"/>
<path d="M117.671 34.3855C117.671 33.4283 117.827 32.5732 118.14 31.8201C118.452 31.0669 118.874 30.4315 119.406 29.9137C119.937 29.3959 120.546 29.0037 121.234 28.7369C121.937 28.4545 122.672 28.3133 123.437 28.3133C124.187 28.3133 124.836 28.4467 125.383 28.7134C125.945 28.9644 126.422 29.2782 126.812 29.6548L125.523 31.3729C125.211 31.1062 124.898 30.9022 124.586 30.761C124.273 30.6041 123.937 30.5256 123.578 30.5256C122.64 30.5256 121.882 30.8787 121.304 31.5847C120.726 32.2751 120.437 33.2087 120.437 34.3855C120.437 35.5465 120.718 36.4801 121.281 37.1862C121.859 37.8766 122.601 38.2218 123.508 38.2218C123.976 38.2218 124.406 38.1276 124.797 37.9393C125.203 37.7354 125.562 37.5 125.875 37.2333L127 38.9514C126.453 39.4378 125.851 39.8065 125.195 40.0575C124.539 40.3086 123.883 40.4341 123.226 40.4341C122.445 40.4341 121.711 40.3007 121.023 40.034C120.351 39.7673 119.765 39.375 119.265 38.8572C118.765 38.3394 118.374 37.704 118.093 36.9508C117.812 36.1977 117.671 35.3426 117.671 34.3855Z" fill="white"/>
<path d="M24.8666 1.24477H33.8048V41.4592H24.8666V25.6381H8.93822V41.4592H0V1.24477H8.93822V18.0439H24.8666V1.24477Z" fill="#514525"/>
</svg>
